<?xml version="1.0" encoding="utf-8" ?>
<svg version="1.1" id="Countryflags.com" xmlns="http://www.w3.org/2000/svg" xmlns:xlink="http://www.w3.org/1999/xlink" x="0px" y="0px" viewBox="-5.5 576.5 300 180" enable-background="new -5.5 576.5 300 180" xml:space="preserve">
	<g>
		<rect id="_x31_3" x="-5.5" y="576.5" fill="#CE1126" width="300" height="180" />
		<rect id="_x31_2" x="19.7" y="601.7" fill="#007A5E" width="249.6" height="129.6" />
		<path id="_x31_1" fill="#FCD116" d="M19.7,601.7h249.6L19.7,731.3h249.6L19.7,601.7z" />
		<circle id="_x31_0" fill="#CE1126" cx="144.5" cy="666.5" r="21.6" />
		<path id="_x39_" fill="#CE1126" d="M35.15,666.746c2.702,5.034,7.959,10.512,12.549,12.438c0.074-5.112-1.74-11.664-4.22-16.884
				L35.15,666.746z" />
		<path id="_x38_" fill="#FCD116" d="M30.567,649.478c3.918,8.166-10.16,27.648,13.294,32.214
				c-2.894-3.948-4.759-10.464-4.053-15.696c4.921,1.872,10.098,7.35,12.19,11.538C58.136,655.244,36.254,656.6,30.567,649.478z" />
		<polygon id="_x37_" fill="#FCD116" points="125.669,660.382 137.307,668.837 132.862,682.519 144.5,674.063 156.138,682.519 
				151.693,668.837 163.331,660.382 148.945,660.382 144.5,646.7 140.055,660.382 			" />
		<polygon id="_x36_" fill="#FCD116" points="73.373,585.485 80.25,590.481 77.623,598.565 84.5,593.569 91.377,598.565 
				88.75,590.481 95.628,585.485 87.089,585.485 84.5,577.4 81.912,585.485 			" />
		<polygon id="_x35_" fill="#FCD116" points="133.373,585.485 140.25,590.481 137.623,598.565 144.5,593.569 151.377,598.565 
				148.75,590.481 155.627,585.485 147.088,585.485 144.5,577.4 141.912,585.485 			" />
		<polygon id="_x34_" fill="#FCD116" points="193.373,585.485 200.25,590.481 197.623,598.565 204.5,593.569 211.377,598.565 
				208.75,590.481 215.628,585.485 207.089,585.485 204.5,577.4 201.912,585.485 			" />
		<polygon id="_x33_" fill="#FCD116" points="192.873,741.485 199.75,746.481 197.123,754.566 204,749.569 210.877,754.566 
				208.25,746.481 215.128,741.485 206.589,741.485 204,733.4 201.412,741.485 			" />
		<polygon id="_x32_" fill="#FCD116" points="132.873,741.485 139.75,746.481 137.123,754.566 144,749.569 150.877,754.566 
				148.25,746.481 155.128,741.485 146.589,741.485 144,733.4 141.412,741.485 			" />
		<polygon id="_x31_" fill="#FCD116" points="72.873,741.485 79.75,746.481 77.123,754.566 84,749.569 90.877,754.566 
				88.25,746.481 95.128,741.485 86.589,741.485 84,733.4 81.412,741.485 			" />
	</g>
</svg>