<?xml version="1.0" encoding="UTF-8"?>
<!-- Generator: Adobe Illustrator 19.0.0, SVG Export Plug-In . SVG Version: 6.00 Build 0)  -->
<svg version="1.1" id="圖層_1" xmlns="http://www.w3.org/2000/svg" xmlns:xlink="http://www.w3.org/1999/xlink" x="0px" y="0px" viewBox="-254 131 450 300" style="enable-background:new -254 131 450 300;" xml:space="preserve">
<style type="text/css">
	.st0{fill:#0F7562;}
	.st1{fill:#FFDE23;}
	.st2{fill:#FFFFFF;}
</style>
<rect x="-254" y="131" class="st0" width="450" height="300"/>
<polygon class="st1" points="-23.012146,205.9940186 -13.3215942,198.9541016 -25.2991943,198.9541016 -29,187.5622559   -32.7008057,198.9541016 -44.6784058,198.9541016 -34.987854,205.9940186 -38.6872559,217.3815918 -29,210.3440552   -19.3127441,217.3815918 "/>
<polygon class="st1" points="-89.4144287,246.8891602 -82.1688843,242.8699951 -90.3922119,241.861084 -91.9733887,233.7295532   -95.4729614,241.2376709 -103.6972656,240.2286377 -97.6369629,245.8803101 -101.1384277,253.3925171 -93.8919067,249.3728027   -87.8327026,255.0234375 "/>
<polygon class="st1" points="-67.2330322,220.4559937 -58.946106,220.5997925 -65.5656738,215.6140137 -62.8672485,207.7775269   -69.6573486,212.5322266 -76.2752075,207.5477295 -73.8530884,215.4702759 -80.6409302,220.2233887 -72.355957,220.3671265   -69.932251,228.2947998 "/>
<g>
	<path class="st2" d="M-87.5204468,343.421814c1.5831909,1.3568115,3.2120361,2.6604614,4.8879395,3.9061279H-29h53.6325073   c1.6759033-1.2456665,3.3047485-2.5493164,4.8879395-3.9061279H-29H-87.5204468z"/>
	<path class="st2" d="M-76.9345703,351.2340698c2.9025269,1.8314209,5.9147949,3.5039063,9.0286255,4.9998169H-29H9.9059448   c3.1138306-1.4959106,6.1260986-3.168396,9.0286255-4.9998169H-29H-76.9345703z"/>
	<path class="st2" d="M-62.1936035,358.7340698C-51.9206543,362.8168335-40.7218018,365.0620728-29,365.0620728   s22.9207153-2.2452393,33.1936035-6.3280029H-29H-62.1936035z"/>
	<path class="st2" d="M-95.4261475,335.765686c0.7759399,0.8481445,1.5709229,1.6820068,2.3781738,2.5002441H-29h64.0479736   c0.807251-0.8182373,1.6022339-1.6520996,2.3781738-2.5002441H-29H-95.4261475z"/>
	<path class="st2" d="M-8.6920166,323.4452515C-18.6534424,320.4315796-25.4061279,314.9818115-29,311.5809326   c-3.5938721,3.4008789-10.3465576,8.850647-20.3079834,11.8643188c-4.6506348,1.4072876-9.5829468,2.1633911-14.6917725,2.1633911   h-39.4581909c1.163147,1.7093506,2.3822632,3.3777466,3.6572266,4.9998169h38.1443481   C-49.2186279,330.6090698-37.8240967,326.1220093-29,318.6806641c8.8240967,7.4413452,20.2186279,11.9284058,32.6563721,11.9277954   h38.1443481c1.2749634-1.6220703,2.4940796-3.2904663,3.6572266-4.9998169H5.9997559   C0.8909302,325.6086426-4.0413208,324.8525391-8.6920166,323.4452515z"/>
	<path class="st2" d="M4.2802124,317.4840698c-3.0756836,0-6.088623-0.2747803-9.0136108-0.800415   c1.3745117,0.1124878,2.7661133,0.1759033,4.1699829,0.1759033c21.6777344,0,40.1897583-13.6295776,47.4368286-32.7784424   c-7.0527344-2.9413452-14.7900391-4.5654297-22.9050293-4.5654297c-14.5206909,0-27.8345337,5.2029419-38.1784058,13.8429565   c10.8313599-11.2991333,26.0604858-18.3484497,42.9299927-18.3743286c1.0800171-2.0918579,2.5125122-3.9709473,4.2191162-5.5615845   c-0.9013672-0.0402222-1.8088989-0.0634155-2.7197876-0.0634155c-16.9588623,0-32.2683716,7.0949707-43.125,18.4765625   c6.2338867-8.4224854,9.921814-18.8406372,9.921814-30.1172485c0-9.0661621-2.3843384-17.5752563-6.5577393-24.9415894   c-0.9224854,3.0750122-2.5568237,5.8417969-4.7072754,8.1149902c3.114563,6.5720825,4.8586426,13.9186401,4.8586426,21.6702271   c0,11.6699829-3.9511108,22.4208984-10.5858765,30.991394c5.40271-8.0611572,8.5547485-17.7531738,8.5547485-28.178894   c0-5.0222778-0.7322388-9.8747559-2.0945435-14.456604C-17.1561279,238.678894-24.878418,230.6954346-29,227.0006714   c-4.121582,3.6947632-11.8438721,11.6782227-15.4840698,23.9174805c-1.3623047,4.5818481-2.0945435,9.4343262-2.0945435,14.456604   c0,10.4257202,3.1520386,20.1177368,8.5547485,28.178894c-6.6347656-8.5704956-10.5858765-19.3214111-10.5858765-30.991394   c0-7.7515869,1.7440796-15.0981445,4.8586426-21.6702271c-2.1504517-2.2731934-3.78479-5.039978-4.7072754-8.1149902   c-4.1734009,7.366333-6.5577393,15.8754272-6.5577393,24.9415894c0,11.2766113,3.6879272,21.6947632,9.921814,30.1172485   c-10.8565674-11.3815918-26.1661377-18.4765625-43.125-18.4765625c-0.9108887,0-1.8184204,0.0231934-2.7197876,0.0634155   c1.706604,1.5906372,3.1390991,3.4697266,4.2191162,5.5615845c16.8695679,0.0258789,32.0986328,7.0751953,42.9299927,18.3743286   c-10.3438721-8.6400146-23.6577148-13.8429565-38.1784058-13.8429565c-8.1149902,0-15.8522949,1.6240845-22.9050293,4.5654297   c7.2470703,19.1488647,25.7590942,32.7784424,47.4368286,32.7784424c1.4038696,0,2.7954712-0.0634155,4.1700439-0.1759033   c-2.9250488,0.5256348-5.9379883,0.800415-9.0136719,0.800415c-13.6779785,0-26.0925293-5.4245605-35.2159424-14.2376709   c-1.8988647,0.730896-3.9354248,1.1870117-6.0592651,1.3131714c9.2924805,10.5101929,22.871582,17.1436157,37.9929199,17.1436157   c14.3632202,0,27.3347778-5.9829712,36.5625-15.5911255c9.2277222,9.6081543,22.1993408,15.5911255,36.5625,15.5911255   c15.1213379,0,28.7004395-6.6334229,37.992981-17.1436157c-2.1239014-0.1261597-4.1604614-0.5822754-6.0593262-1.3131714   C30.3727417,312.0595093,17.9581909,317.4840698,4.2802124,317.4840698z"/>
</g>
<polygon class="st1" points="39.6369629,245.8803101 45.6972656,240.2286377 37.4729614,241.2376709 33.9733887,233.7295532   32.3922119,241.861084 24.1688843,242.8699951 31.4144287,246.8891602 29.8327026,255.0234375 35.8919067,249.3728027   43.1384277,253.3925171 "/>
<polygon class="st1" points="14.355957,220.3671265 22.6409302,220.2233887 15.8530884,215.4702759 18.2752075,207.5477295   11.6573486,212.5322266 4.8672485,207.7775269 7.5656738,215.6140137 0.946106,220.5997925 9.2330322,220.4559937   11.932251,228.2947998 "/>
</svg>