<?xml version="1.0" encoding="utf-8" ?>
<svg version="1.1" id="Countryflags.com" xmlns="http://www.w3.org/2000/svg" xmlns:xlink="http://www.w3.org/1999/xlink" x="0px" y="0px" viewBox="57.5 839 300 380" enable-background="new 57.5 839 300 380" xml:space="preserve">
    <g>
        <polygon fill="#003893" points="57.5,1219 57.5,839 357.5,1027.402 159.37,1027.402 350.418,1219 			" />
        <path id="_x32_8" fill="#DC143C" d="M64.174,1020.741h270.184L64.174,851.06v361.276h270.184L64.174,941.38V1020.741z" />
        <path id="_x32_7" fill="#FFFFFF" d="M77.907,957.111c11.681,29.805,45.242,44.471,74.962,32.757
			c14.953-5.894,26.786-17.761,32.663-32.757c0,29.805-24.093,53.967-53.813,53.967C102,1011.078,77.907,986.916,77.907,957.111" />
        <ellipse id="_x32_6" fill="#FFFFFF" cx="131.72" cy="982.224" rx="25.041" ry="25.114" />
        <path id="_x32_5" fill="#FFFFFF" d="M141.303,959.022l-2.798-11.005l-6.785,9.093" />
        <path id="_x32_4" fill="#FFFFFF" d="M149.427,964.466l1.614-11.241l-9.738,5.797" />
        <path id="_x32_3" fill="#FFFFFF" d="M154.855,972.614l5.781-9.766l-11.209,1.619" />
        <path id="_x32_2" fill="#FFFFFF" d="M156.762,982.224l9.068-6.804l-10.974-2.806" />
        <path id="_x32_1" fill="#FFFFFF" d="M154.855,991.835l10.974-2.806l-9.068-6.804" />
        <path id="_x32_0" fill="#FFFFFF" d="M149.427,999.982l11.209,1.619l-5.781-9.766" />
        <path id="_x31_9" fill="#FFFFFF" d="M122.137,959.022l2.798-11.005l6.785,9.093" />
        <path id="_x31_8" fill="#FFFFFF" d="M114.013,964.466l-1.614-11.241l9.739,5.797" />
        <path id="_x31_7" fill="#FFFFFF" d="M108.584,972.614l-5.781-9.766l11.21,1.619" />
        <path id="_x31_6" fill="#FFFFFF" d="M106.678,982.224l-9.068-6.804l10.974-2.806" />
        <path id="_x31_5" fill="#FFFFFF" d="M108.584,991.835l-10.974-2.806l9.068-6.804" />
        <polygon id="_x31_" fill="#FFFFFF" points="102.81,1066.322 105.79,1090.535 81.647,1087.546 96.299,1107.021 73.9,1116.539 
			96.299,1126.057 81.647,1145.532 105.79,1142.543 102.81,1166.755 122.229,1152.061 131.72,1174.524 141.211,1152.061 
			160.63,1166.755 157.65,1142.543 181.794,1145.532 167.14,1126.057 189.54,1116.539 167.14,1107.021 181.794,1087.546 
			157.65,1090.535 160.63,1066.322 141.211,1081.017 131.72,1058.554 122.229,1081.017 			" />
    </g>
</svg>