<?xml version="1.0" encoding="utf-8" ?>
<svg version="1.1" id="Countryflags.com" xmlns:rdf="http://www.w3.org/1999/02/22-rdf-syntax-ns#" xmlns:svg="http://www.w3.org/2000/svg" xmlns:cc="http://creativecommons.org/ns#" xmlns:dc="http://purl.org/dc/elements/1.1/" xmlns="http://www.w3.org/2000/svg" xmlns:xlink="http://www.w3.org/1999/xlink" x="300px" y="150px" viewBox="294.5 696.5 300 150" enable-background="new 294.5 696.5 300 150" xml:space="preserve">
	<g>
		<rect id="_x31_0" x="294.5" y="696.5" fill="#FFB700" width="300" height="150" />
		<rect id="_x39_" x="348.25" y="709" fill="#FF5B00" width="41.25" height="125" />
		<rect id="_x38_" x="307" y="709" fill="#005641" width="41.25" height="125" />
		<rect id="_x37_" x="402" y="709" fill="#8D2029" width="181.25" height="125" />
		<path id="_x36_" fill="#FFB700" stroke="#000000" stroke-width="0.5314" d="M566.016,813.016c0,0,1.699,3.46,3.577,4.87
				c2.782,2.089,8.486,1.938,10.907,4.375c2.901,2.874-0.225,6.671-0.199,7l0.159,2.005c0,0-1.956,0.024-2.78,0.152
				c-1.239,0.193-1.722,1.201-4.027,1.051c-5.797-0.376-5.564-5.599-5.891-10.063c-0.291-1.699-0.965-3.916-1.348-5.615
				C566.086,815.335,566.016,813.016,566.016,813.016z" />
		<path id="_x35_" fill="#FFB700" stroke="#000000" stroke-width="0.5314" d="M419.234,729.984c0,0-1.699-3.46-3.577-4.87
				c-2.782-2.089-8.486-1.938-10.907-4.375c-2.901-2.874,0.225-6.671,0.199-7l-0.159-2.005c0,0,1.956-0.023,2.78-0.152
				c1.239-0.193,1.722-1.201,4.027-1.051c5.797,0.376,5.564,5.599,5.891,10.063c0.291,1.699,0.965,3.916,1.348,5.615
				C419.164,727.665,419.234,729.984,419.234,729.984z" />
		<path id="_x34_" fill="#FFB700" stroke="#000000" stroke-width="0.5314" d="M566.016,729.984c0,0,1.699-3.46,3.577-4.87
				c2.782-2.089,8.486-1.938,10.907-4.375c2.901-2.874-0.225-6.671-0.199-7l0.159-2.005c0,0-1.956-0.023-2.78-0.152
				c-1.239-0.193-1.722-1.201-4.027-1.051c-5.797,0.376-5.564,5.599-5.891,10.063c-0.291,1.699-0.965,3.916-1.348,5.615
				C566.086,727.665,566.016,729.984,566.016,729.984z" />
		<path id="_x33_" fill="#FFB700" stroke="#000000" stroke-width="0.5314" d="M419.234,813.016c0,0-1.699,3.46-3.577,4.87
				c-2.782,2.089-8.486,1.938-10.907,4.375c-2.901,2.874,0.225,6.671,0.199,7l-0.159,2.005c0,0,1.956,0.024,2.78,0.152
				c1.239,0.193,1.722,1.201,4.027,1.051c5.797-0.376,5.564-5.599,5.891-10.063c0.291-1.699,0.965-3.916,1.348-5.615
				C419.164,815.335,419.234,813.016,419.234,813.016z" />
		<path id="_x32_" stroke="#000000" stroke-width="1.39" d="M464.884,816.389l1.09-0.629l0.466,0.63
				c0.621,0.84,2.34,0.83,3.48-0.02l0.872-0.65l0.73,0.65c0.96,0.854,2.753,0.855,3.898,0.003c0.802-0.597,0.913-0.609,1.443-0.155
				c0.316,0.271,1.243,0.579,2.059,0.685c1.471,0.191,1.493,0.18,2.354-1.111c0.721-1.081,0.833-1.519,0.661-2.567
				c-0.114-0.695-0.237-1.814-0.273-2.486c-0.065-1.217-0.058-1.225,1.715-1.842c0.979-0.341,2.113-0.798,2.519-1.016
				c0.708-0.38,2.661-2.675,2.661-3.127c0-0.12-0.763-0.303-1.695-0.408c-3.708-0.416-4.336-2.407-1.926-6.106
				c3.931-6.032,6.304-11.906,6.32-15.648c0.007-1.673,0.102-2.234,0.317-1.871c0.878,1.487-0.695,7.719-3.079,12.195l-0.96,1.802
				l0.916-0.211c0.504-0.116,3.465-1.365,6.581-2.777c8.529-3.863,11.458-4.62,16.978-4.387c4.624,0.195,6.594,1.098,9.858,4.523
				c1.729,1.814,3.396,3.112,6.444,5.02c6.494,4.065,6.764,4.417,7.073,9.197c0.313,4.843,0.157,5.106-3.506,5.916
				c-3.131,0.692-5.094,2.151-5.62,4.179c-0.281,1.083,0.31,1.114,1.889,0.1l1.157-0.743l0.514,0.743
				c0.676,0.978,2.114,0.981,3.307,0.009l0.902-0.735l0.922,0.735c1.432,1.141,3.337,0.865,3.874-0.563
				c0.103-0.274,0.379-0.187,0.938,0.299c1.046,0.909,3.729,1.299,4.018,0.584c0.111-0.273-0.099-0.947-0.467-1.497
				c-1.561-2.34-2.049-3.456-2.069-4.729c-0.028-1.771,0.5-2.626,2.515-4.067c2.448-1.75,3.204-4.008,1.343-4.008
				c-1.149,0-2.308-1.016-3.047-2.671c-1.502-3.365-1.208-7.138,1.047-13.414c2.29-6.375,2.544-7.551,2.553-11.814
				c0.007-3.448-0.08-4.043-0.864-5.934c-0.479-1.156-1.453-2.876-2.162-3.823l-1.29-1.723l1.657-1.373
				c5.059-4.191,4.024-11.05-2.066-13.692c-1.863-0.808-2.328-0.88-5.593-0.858c-1.958,0.013-4.945,0.271-6.636,0.573
				c-1.725,0.308-4.644,0.555-6.646,0.563c-3.181,0.013-3.721-0.066-4.947-0.718c-1.278-0.68-1.498-1.003-1.748-2.576
				c-0.052-0.323-0.278-0.646-0.502-0.717c-0.435-0.137-2.443,1.605-2.74,2.377c-0.146,0.381-0.266,0.354-0.695-0.153
				c-0.285-0.337-0.683-1.112-0.885-1.722c-0.507-1.534,0.115-2.684,1.918-3.545l1.399-0.668l-0.825-0.512
				c-1.702-1.056-4.596-0.333-5.643,1.409c-0.296,0.493-0.619,0.897-0.718,0.898c-0.099,0.001-0.661-0.469-1.25-1.045
				c-2.198-2.147-1.442-5.324,1.498-6.294c1.567-0.517,2.955-0.123,3.243,0.923c0.441,1.596,1.81-0.502,1.565-2.396
				c-0.163-1.259-0.139-1.303,0.732-1.303c1.212,0,3.791,1.59,4.589,2.83c0.927,1.439,0.859,3.706-0.161,5.395l-0.801,1.326
				l1.047-0.21c1.536-0.308,3.028-1.261,3.783-2.418c0.798-1.223,0.884-3.604,0.176-4.889c-0.686-1.245-0.607-1.443,0.407-1.022
				c1.724,0.716,2.646,1.505,3.337,2.858c0.623,1.218,0.657,1.521,0.321,2.789c-0.208,0.782-0.671,1.812-1.029,2.287
				c-0.557,0.741-0.576,0.865-0.132,0.865c0.826,0,2.552-0.782,3.164-1.434c0.31-0.33,0.761-1.141,1.003-1.803l0.44-1.204
				l0.506,0.918c0.715,1.298,2.106,2.466,3.801,3.192c1.823,0.781,2.583,0.826,1.629,0.094c-0.643-0.493-1.828-3.969-1.469-4.31
				c0.211-0.2,2.687,1.705,5.513,4.242c2.674,2.4,4.354,3.187,6.809,3.187c3.137,0,4.963-2.731,3.554-5.313
				c-0.822-1.505-2.653-1.715-3.724-0.425c-0.492,0.593-0.628,1.064-0.483,1.686c0.177,0.762,0.108,0.863-0.586,0.863
				c-0.912,0-2.709-1.167-5.902-3.83c-4.868-4.062-10.782-7.505-15.053-8.762c-2.741-0.807-8.596-1.122-11.382-0.612
				c-3.015,0.552-6.582,2.278-8.525,4.125c-3.443,3.273-3.498,7.63-0.145,11.596l0.96,1.136l-0.65,1.01
				c-0.946,1.469-0.865,3.446,0.201,4.903c0.469,0.641,0.943,1.166,1.052,1.166c0.109,0,0.229-0.413,0.266-0.917
				c0.094-1.274,0.641-2.128,1.58-2.466c0.845-0.304,1.392-0.16,5.263,1.385c4.072,1.625,10.769,1.737,17.89,0.298
				c3.491-0.705,7.608-0.664,9.419,0.095c3.32,1.391,4.089,5.009,1.649,7.756c-1.056,1.189-2.075,1.673-5.496,2.612
				c-2.603,0.714-3.219,0.762-9.136,0.703c-5.055-0.05-6.871,0.047-8.934,0.478c-2.24,0.468-3.618,0.515-10.198,0.349l-7.608-0.192
				l0.844,0.698c0.464,0.384,1.12,0.857,1.457,1.051c0.574,0.329,0.555,0.374-0.298,0.69c-0.501,0.186-1.614,0.338-2.472,0.338
				h-1.561l-0.21,1.326c-0.115,0.729-0.107,1.581,0.019,1.893c0.186,0.459,0.117,0.525-0.367,0.349
				c-0.328-0.119-1.242-0.354-2.031-0.521s-1.851-0.509-2.361-0.758c-0.856-0.419-0.951-0.408-1.267,0.15
				c-0.282,0.499-2.926,2.466-3.314,2.466c-0.063,0-0.143-0.38-0.179-0.843s-0.418-1.671-0.848-2.683s-0.879-2.115-0.998-2.453
				c-0.179-0.509-0.26-0.535-0.476-0.153c-0.143,0.253-0.353,0.943-0.465,1.533c-0.112,0.59-0.511,1.549-0.885,2.131l-0.681,1.057
				l-0.434-0.904c-0.466-0.971-1.24-1.977-1.521-1.977c-0.095,0-0.256,0.311-0.358,0.69c-0.214,0.792-2.049,2.989-2.498,2.989
				c-0.165,0-0.3-0.621-0.3-1.38s-0.146-1.38-0.324-1.38s-0.324,0.196-0.324,0.436c0,0.583-1.568,2.323-2.094,2.323
				c-0.229,0-0.598,0.207-0.82,0.46c-0.578,0.659-1.051,0.567-0.808-0.158c0.114-0.34,0.04-1.133-0.165-1.763
				c-0.204-0.63-0.422-1.3-0.483-1.489c-0.077-0.239-0.639-0.175-1.828,0.206c-1.921,0.616-2.565,0.507-1.577-0.267
				c0.361-0.283,0.911-1.263,1.221-2.178s0.768-1.726,1.018-1.804c0.349-0.108,0.33,0.026-0.081,0.582
				c-0.294,0.397-0.535,0.933-0.536,1.191c0,0.258-0.222,0.868-0.491,1.357c-0.269,0.489-0.438,0.937-0.376,0.996
				c0.062,0.059,0.793-0.219,1.625-0.617l1.511-0.725l0.006,0.648c0.004,0.356,0.186,1.297,0.405,2.09l0.398,1.442l1.029-0.473
				c1.051-0.483,2.047-2.206,2.047-3.541c0-0.66,0.378-0.559,0.533,0.143c0.045,0.206,0.283,0.979,0.527,1.717l0.445,1.343
				l0.704-0.848c0.387-0.467,0.873-1.381,1.079-2.033c0.358-1.131,0.92-1.618,0.92-0.796c0,0.592,1.616,2.715,1.927,2.533
				c0.151-0.088,0.451-0.885,0.667-1.771c0.449-1.842,1.174-3.095,1.634-2.825c0.173,0.101,0.241,0.298,0.15,0.437
				c-0.091,0.139,0.281,1.337,0.827,2.662c0.545,1.325,1.093,2.658,1.217,2.964c0.199,0.491,0.379,0.42,1.549-0.613
				c0.728-0.643,1.388-1.362,1.468-1.599c0.12-0.358,0.282-0.345,0.963,0.078c0.952,0.591,4.151,1.542,4.398,1.308
				c0.093-0.088,0.188-0.928,0.211-1.867l0.042-1.708l0.92,0.191c0.506,0.105,1.57,0.098,2.365-0.014l1.445-0.205l-1.287-0.883
				c-0.708-0.486-1.424-1.114-1.591-1.397c-0.178-0.301-0.808-0.557-1.522-0.617c-1.929-0.164-5.347-2.081-5.347-2.999
				c0-0.172,0.474,0.121,1.052,0.651c1.284,1.177,3.067,1.915,4.625,1.915h1.166l-0.721-0.959c-0.414-0.551-0.786-1.596-0.873-2.455
				c-0.139-1.37-0.283-1.588-1.714-2.583c-0.859-0.598-1.924-1.493-2.365-1.99l-0.803-0.904l-0.41,1.073
				c-0.225,0.59-0.501,1.073-0.612,1.073s-0.544-0.345-0.963-0.767c-0.418-0.421-0.844-0.765-0.947-0.763
				c-0.103,0.002-0.473,0.57-0.823,1.262l-0.637,1.258l-0.492-0.725c-0.271-0.399-0.91-1.105-1.421-1.568
				c-0.51-0.464-0.779-0.843-0.597-0.843s0.813,0.483,1.401,1.073l1.069,1.073l0.435-0.786c0.258-0.467,0.355-1.184,0.238-1.763
				c-0.17-0.845-0.146-0.894,0.177-0.364c0.206,0.337,0.832,0.984,1.39,1.437l1.015,0.824l0.701-1.284
				c0.698-1.277,0.702-1.28,1.02-0.517c0.424,1.02,3.495,3.537,6.109,5.008c0.403,0.227,0.233-0.553-0.511-2.345
				c-0.197-0.475-0.358-1.331-0.358-1.902c0-0.847-0.244-1.225-1.328-2.05c-1.565-1.191-2.071-2.038-2.366-3.958
				c-0.119-0.778-0.393-1.644-0.609-1.924c-0.319-0.415-0.372-0.183-0.287,1.262c0.058,0.974-0.069,2.184-0.281,2.69l-0.386,0.92
				l-0.298-0.767c-0.164-0.421-0.89-1.155-1.614-1.629c-0.723-0.474-1.231-0.942-1.128-1.04s0.847,0.335,1.653,0.961
				c1.229,0.953,1.5,1.057,1.67,0.637c0.2-0.493,0-2.64-0.387-4.141c-0.193-0.749-0.176-0.745,0.748,0.179
				c0.682,0.681,1.059,1.494,1.351,2.913c0.371,1.802,0.558,2.102,2.224,3.564c1,0.878,1.871,1.548,1.935,1.488
				c0.064-0.06,0.19-2.333,0.281-5.05c0.174-5.21-0.023-6.45-1.277-8.06l-0.645-0.827l1.013-1.093
				c1.322-1.426,1.929-2.569,2.193-4.129l0.214-1.269l-1.144,1.083c-0.937,0.887-1.384,1.083-2.469,1.083
				c-1.074,0-1.494-0.18-2.218-0.951c-0.868-0.925-2.407-1.816-3.887-2.249c-0.547-0.16-0.729-0.09-0.729,0.28
				c0,0.271-0.302,1.053-0.671,1.739l-0.671,1.246l-1.406-1.39c-0.862-0.852-1.886-1.516-2.647-1.716
				c-1.945-0.511-2.051-0.461-2.051,0.989c0,2.198-0.938,2.608-2.628,1.147c-1.288-1.114-2.356-1.356-4.798-1.088l-1.886,0.207
				l0.339,0.851c0.283,0.711,0.22,1.011-0.388,1.818c-0.985,1.31-2.266,1.877-4.237,1.877c-0.908,0-2.044,0.188-2.525,0.417
				c-0.481,0.23-1.675,0.494-2.655,0.588c-0.979,0.094-2.023,0.261-2.32,0.372c-0.464,0.173-0.515,0.031-0.365-1.025
				c0.229-1.615-0.899-2.805-2.657-2.805c-2.281,0-3.332,2.04-2.439,4.73c0.172,0.518,0.397,1.334,0.5,1.815
				c0.107,0.498,1.134,1.821,2.392,3.079c1.213,1.214,2.359,2.476,2.547,2.806c0.188,0.33,0.81,0.859,1.382,1.176l1.04,0.576
				l-0.137-1.113c-0.151-1.223,0.116-1.415,0.767-0.552c0.233,0.308,0.824,0.807,1.313,1.108c0.771,0.474,0.89,0.484,0.89,0.072
				c0-0.261,0.157-0.864,0.349-1.338l0.349-0.863l0.606,1.174c0.333,0.646,1.418,2.114,2.41,3.262
				c1.925,2.228,3.097,4.718,2.492,5.291c-0.245,0.232-0.909,0.215-2.284-0.062c-1.066-0.214-2.385-0.328-2.93-0.252
				c-1.114,0.155-1.202,0.011-0.517-0.847c0.723-0.906,0.608-1.055-0.813-1.055c-1.644,0-5.725-0.788-7.292-1.408
				c-1.523-0.603-1.875-0.453-2.323,0.992c-0.202,0.65-0.571,1.828-0.821,2.618l-0.454,1.436l1.648-0.159
				c0.906-0.087,2.072-0.286,2.591-0.441s0.99-0.238,1.047-0.183c0.057,0.054-0.174,0.615-0.514,1.247l-0.618,1.148l1.028-0.209
				c0.565-0.115,1.415-0.397,1.889-0.626c0.825-0.399,0.891-0.37,1.542,0.674c0.8,1.284,1.44,1.232,1.582-0.13
				c0.147-1.408,0.61-1.2,1.481,0.666c0.838,1.794,1.709,2.428,1.877,1.364c0.056-0.353,0.507-0.928,1.003-1.278
				c1.003-0.707,1.76-0.495,2.193,0.615c0.449,1.149-0.552,2.333-3.463,4.098c-5.832,3.535-9.222,8.37-10.189,14.532
				c-0.873,5.558,1.854,11.302,7.323,15.427c2.617,1.974,6.775,4.058,6.511,3.263c-1.122-3.376-1.085-9.818,0.063-10.905
				c0.172-0.163,0.113,0.509-0.132,1.494c-0.911,3.668-0.515,6.591,1.82,13.441c2.113,6.196,1.82,8.844-1.17,10.594
				c-0.96,0.562-1.579,0.655-4.161,0.624c-2.802-0.034-3.107,0.022-4.006,0.739c-0.872,0.695-2.003,2.977-2.003,4.041
				C462.985,817.192,463.625,817.116,464.884,816.389L464.884,816.389z M487.589,762.658c0-0.45-1.321-1.669-2.659-2.454
				c-1.051-0.617-1.225-0.635-1.227-0.133c-0.004,0.764-0.683,2.683-0.949,2.683c-0.151,0-0.373-0.375-0.494-0.833
				c-0.122-0.458-0.631-1.361-1.132-2.007l-0.912-1.174l-0.71,1.088c-0.662,1.014-1.808,2.007-2.317,2.007
				c-0.121,0-0.145-0.534-0.053-1.187c0.1-0.709,0.023-1.272-0.193-1.398c-0.198-0.116-0.361-0.076-0.361,0.09
				c0,0.382-1.592,2.188-1.928,2.188c-0.139,0-0.333-0.517-0.432-1.15c-0.099-0.632-0.266-1.633-0.373-2.223
				c-0.106-0.59,0.12-0.19,0.504,0.889l0.697,1.962l0.764-1.196c0.421-0.658,0.765-1.376,0.766-1.597
				c0-0.221,0.143-0.318,0.316-0.217c0.173,0.101,0.413,0.892,0.535,1.757l0.22,1.573l0.841-0.922
				c0.463-0.507,1.005-1.186,1.205-1.509c0.357-0.576,0.377-0.575,1.087,0.026c0.398,0.337,1.009,1.144,1.359,1.793
				s0.682,1.132,0.74,1.073s0.185-0.727,0.285-1.486s0.188-1.408,0.197-1.442c0.049-0.188,2.534,1.427,3.453,2.244
				c0.591,0.526,1.152,0.882,1.247,0.792c0.095-0.09,0.173-0.865,0.173-1.723c0-1.329-0.141-1.686-0.954-2.412
				c-0.935-0.836-0.961-0.84-1.306-0.229c-0.448,0.793-0.977,0.805-0.977,0.021c0-0.572-1.766-2.77-2.226-2.77
				c-0.119,0-0.491,0.483-0.827,1.073c-0.336,0.59-0.697,1.073-0.802,1.072c-0.453-0.003-2.944-2.779-2.942-3.28
				c0-0.399,0.168-0.297,0.604,0.369c0.332,0.506,0.994,1.261,1.472,1.678c0.968,0.845,1.32,0.639,1.694-0.988
				c0.106-0.464,0.292-0.843,0.411-0.843c0.414,0,2.582,2.302,2.886,3.066l0.306,0.767l0.232-0.843
				c0.283-1.031,0.596-1.069,1.049-0.128c0.189,0.393,1.123,1.21,2.075,1.816l1.731,1.101l0.347-1.108
				c0.191-0.609,0.444-0.959,0.563-0.778c0.177,0.27-0.274,2.106-0.613,2.5c-0.051,0.059-0.612-0.268-1.247-0.726l-1.154-0.834
				l-0.005,1.493c-0.003,0.821-0.092,1.803-0.199,2.183C488.146,763.112,487.588,763.321,487.589,762.658L487.589,762.658z
				 M478.955,750.757c-2.058-1.718-2.37-2.111-2.325-2.926l0.048-0.867l0.134,0.837c0.078,0.489,0.626,1.221,1.317,1.76l1.183,0.923
				l0.727-0.841c0.4-0.462,0.732-1.013,0.739-1.224c0.017-0.55,0.115-0.503,1.509,0.705c1.238,1.074,1.257,1.079,1.441,0.383
				c0.103-0.388,0.066-1.118-0.081-1.623c-0.405-1.387-0.325-1.597,0.288-0.76c0.305,0.417,0.796,1.006,1.091,1.31
				c0.513,0.528,0.544,0.522,0.735-0.153c0.11-0.388,0.201-1.097,0.204-1.577l0.004-0.872l1.116,1.265
				c1.042,1.182,1.139,1.226,1.457,0.662c0.188-0.332,0.343-1.129,0.346-1.773c0.003-0.831,0.091-1.041,0.302-0.724
				c0.353,0.529,0.108,1.968-0.544,3.194l-0.468,0.88l-0.614-0.957c-0.786-1.223-1.047-1.204-1.551,0.116
				c-0.476,1.248-0.786,1.343-1.25,0.383c-0.301-0.621-0.358-0.545-0.571,0.759l-0.237,1.449l-1.42-1.102l-1.42-1.102l-0.638,0.726
				c-0.351,0.399-0.643,0.898-0.649,1.109C479.817,751.177,479.476,751.191,478.955,750.757L478.955,750.757z M497.261,744.358
				c-0.749-0.675-1.265-1.319-1.147-1.431c0.118-0.112,0.252-0.144,0.296-0.071c0.045,0.073,0.657,0.717,1.361,1.431
				C499.391,745.93,499.058,745.977,497.261,744.358z M472.877,741.837c-0.681-0.921-0.634-1.532,0.195-2.53
				c0.599-0.722,0.873-0.82,1.92-0.687c0.671,0.085,2.116,0.678,3.21,1.318c1.264,0.739,2.571,1.234,3.584,1.357
				c0.877,0.106,1.594,0.147,1.594,0.089c0-0.058-0.364-0.651-0.809-1.319c-1.057-1.586-1.021-1.756,0.171-0.806
				c1.224,0.975,2.688,1.26,5.959,1.161l1.598-0.049l-0.927-0.917c-1.297-1.282-0.897-1.397,0.534-0.154
				c1.343,1.166,1.259,1.248-1.568,1.53c-1.201,0.12-2.493,0.033-3.567-0.24c-1.606-0.409-1.669-0.402-1.365,0.136
				c0.176,0.31,0.459,0.564,0.631,0.564c0.172,0,0.312,0.157,0.312,0.349c0,0.591-3.47,0.071-5.128-0.768
				c-3.788-1.918-4.264-2.084-5.166-1.8c-0.502,0.158-1.004,0.621-1.177,1.084c-0.577,1.547,1.616,2.749,2.521,1.382
				c0.262-0.396,0.201-0.667-0.26-1.15c-0.631-0.661-0.572-0.755,0.28-0.445c0.605,0.22,0.686,1.672,0.124,2.205
				C474.902,742.761,473.432,742.588,472.877,741.837z M487.799,738.017c-0.474-0.449-0.102-0.559,2.021-0.598
				c2.627-0.049,4.223-0.487,6.105-1.675c1.508-0.952,1.917-0.765,0.486,0.222c-1.306,0.901-3.343,1.593-5.31,1.805
				c-0.952,0.103-2.038,0.245-2.412,0.316C488.315,738.157,487.914,738.126,487.799,738.017z M510.364,816.265l1.175-0.755
				l0.797,0.755c1.045,0.99,2.269,0.968,3.274-0.059c0.438-0.448,0.832-0.758,0.875-0.69s0.238,0.401,0.435,0.738
				c0.248,0.427,0.759,0.642,1.68,0.707c1.111,0.078,1.409-0.029,1.85-0.667l0.526-0.76l1.157,0.743
				c3.167,2.036,4.855-0.1,3.439-4.353c-0.72-2.162-0.324-3.378,1.996-6.13c0.978-1.161,1.779-2.399,1.78-2.753
				c0-0.563-0.181-0.639-1.483-0.613c-1.246,0.025-1.61-0.109-2.266-0.831c-1.066-1.174-1.003-2.519,0.189-4.011l0.952-1.192
				l-1.69-1.147c-0.929-0.631-2.605-2.123-3.725-3.316c-2.513-2.68-4.985-3.95-8.244-4.239l-2.185-0.193l0.003,1.654
				c0.004,2.129,1.003,4.177,3.731,7.647c3.101,3.945,3.318,4.555,3.443,9.712l0.106,4.361l-0.897,0.851
				c-0.811,0.77-1.177,0.868-3.793,1.019c-2.491,0.144-3.014,0.272-3.745,0.92c-0.971,0.86-1.261,1.328-1.561,2.516
				c-0.175,0.692-0.104,0.843,0.396,0.843C508.914,817.021,509.717,816.68,510.364,816.265L510.364,816.265z M443.705,804.995
				c0.277-0.375,0.504-0.98,0.504-1.345c0-0.551,0.247-0.698,1.458-0.871l1.458-0.207l-0.972-0.775
				c-1.155-0.921-1.262-1.64-0.244-1.641c1.014,0,2.731-1.053,2.992-1.832c0.121-0.362,0.045-0.846-0.173-1.094
				c-0.569-0.649-1.637-0.551-1.836,0.168c-0.213,0.773-0.571,0.775-1.381,0.008c-1.218-1.154-1.246-3.542-0.056-4.933
				c0.56-0.655,0.555-0.698-0.159-1.375c-0.769-0.728-1.317-2.169-0.956-2.511c0.115-0.109,0.722-0.022,1.349,0.193
				c0.891,0.305,1.243,0.31,1.611,0.021c1.112-0.875-0.093-1.999-1.877-1.751c-0.718,0.1-1.015,0-1.118-0.372
				c-0.078-0.282-0.706-0.651-1.414-0.83c-1.264-0.32-1.273-0.316-1.273,0.555c0,0.955-0.545,1.135-1.58,0.522
				c-0.841-0.498-1.657-0.111-1.657,0.785c0,0.836,0.841,1.248,2.347,1.151c1.156-0.074,1.198,0.785,0.101,2.02l-0.789,0.888
				l0.625,0.898c0.926,1.33,0.848,3.54-0.164,4.637l-0.793,0.86l-0.52-0.69c-0.723-0.958-1.712-0.894-1.983,0.129
				c-0.177,0.67-0.031,0.976,0.808,1.686c0.564,0.477,1.387,0.868,1.829,0.868c1.095,0,1.052,0.861-0.086,1.73l-0.89,0.68
				l1.376,0.213c0.757,0.117,1.376,0.338,1.376,0.491c0,0.585,0.954,2.404,1.26,2.404
				C443.056,805.676,443.428,805.37,443.705,804.995L443.705,804.995z M461.62,797.231c1.25-0.493,3.955-2.783,3.955-3.349
				c0-0.178-0.747-0.999-1.659-1.825c-1.921-1.738-4.01-4.664-4.551-6.375c-0.282-0.892-1.646-2.419-5.488-6.145l-5.112-4.958
				l-1.473,0.373c-0.81,0.205-1.799,0.378-2.197,0.384c-0.686,0.01-0.674,0.05,0.239,0.756l0.962,0.745l1.349-0.749
				c1.308-0.726,1.354-0.73,1.515-0.146c0.094,0.342-0.109,0.935-0.471,1.37c-0.351,0.422-0.55,0.901-0.444,1.064
				c0.106,0.163-0.23,0.504-0.748,0.758c-0.96,0.47-1.626,2.018-0.869,2.018c0.682,0,2.184-1.854,2.011-2.481
				c-0.089-0.321-0.046-0.652,0.095-0.734c0.585-0.343,0.549,1.113-0.046,1.829c-0.351,0.422-0.55,0.901-0.444,1.064
				c0.106,0.163-0.23,0.504-0.748,0.758c-0.954,0.467-1.627,2.018-0.876,2.018c0.736,0,2.214-1.772,2.031-2.435
				c-0.096-0.347-0.059-0.698,0.082-0.781c0.394-0.231,0.607,0.918,0.274,1.482c-0.178,0.302-0.177,0.713,0.004,1.04
				c0.327,0.592-0.005,1.728-0.608,2.081c-0.259,0.151-0.083,0.448,0.544,0.922c0.908,0.686,0.925,0.758,0.925,3.782
				c0,2.528,0.102,3.18,0.566,3.62c0.521,0.494,0.567,0.496,0.567,0.022c0-0.517,0.908-1.15,1.651-1.15
				c0.219,0,1.588,1.16,3.042,2.578c1.463,1.427,2.993,2.64,3.427,2.718c0.431,0.077,0.897,0.158,1.036,0.181
				C460.302,797.687,460.958,797.492,461.62,797.231L461.62,797.231z M445.989,784.999c0-0.815-1.681-1.685-3.692-1.91
				c-1.623-0.182-1.65-0.172-1.65,0.639c0,0.671,0.255,0.935,1.376,1.423C443.824,785.935,445.989,785.852,445.989,784.999z
				 M447.833,784.924c0.82-0.744,1.208-1.629,0.715-1.629c-0.567,0-2.073,1.351-2.073,1.86
				C446.475,785.95,446.755,785.903,447.833,784.924z M446.084,782.515c0.07-0.46-0.215-0.767-1.067-1.152
				c-1.839-0.83-4.038-1.215-4.567-0.799c-0.975,0.766-0.325,1.796,1.251,1.981c0.635,0.075,1.495,0.268,1.912,0.43
				C444.824,783.446,445.976,783.231,446.084,782.515z M446.084,780.052c0.099-0.656-0.32-0.891-3.744-2.096
				c-2.556-0.9-3.688-0.476-2.871,1.076c0.285,0.541,0.762,0.788,1.833,0.948c0.797,0.119,1.886,0.353,2.42,0.518
				C445.149,780.943,445.973,780.787,446.084,780.052z M447.801,777.744c0.517-0.524,0.939-1.142,0.939-1.374
				c0-0.751-2.04,0.578-2.3,1.499C446.127,778.975,446.633,778.928,447.801,777.744L447.801,777.744z M446.085,777.589
				c0.113-0.747-1.13-1.422-3.573-1.94c-1.793-0.381-2.583-0.165-2.449,0.668c0.073,0.455,0.67,0.787,2.364,1.316
				C445.138,778.479,445.953,778.469,446.085,777.589z M448.475,774.111c3.131-1.394,3.402-4.909,0.449-5.832
				c-1.226-0.383-2.009-0.177-2.478,0.654c-0.359,0.636-0.119,1.792,0.373,1.792c0.166,0,0.302,0.214,0.302,0.476
				c0,1.22-4.781,1.773-6.741,0.78c-0.689-0.349-0.989-1.255-0.415-1.255c0.428,0,0.725-0.923,0.506-1.576
				c-0.298-0.89-1.195-1.198-2.496-0.858c-2.935,0.768-2.853,4.216,0.136,5.68C440.56,775.17,445.932,775.243,448.475,774.111z
				 M446.527,771.41c0.181-0.172,0.103-0.436-0.201-0.675c-0.666-0.523-0.63-1.301,0.1-2.192c0.548-0.669,0.617-1.67,0.805-11.768
				c0.325-17.403,1.619-30.493,3.325-33.633c0.679-1.25,0.584-1.255-1.171-0.061c-2.26,1.538-3.981,3.541-5.506,6.408
				c-2.879,5.413-3.88,12.695-3.88,28.239c0,8.826,0.06,9.981,0.563,10.811c0.478,0.788,0.503,1.079,0.167,1.921
				c-0.218,0.546-0.316,1.067-0.219,1.159C441.153,772.227,445.836,772.065,446.527,771.41L446.527,771.41z M472.836,754.816
				c0.098-0.15-0.119-0.909-0.481-1.686c-0.566-1.212-0.794-1.413-1.6-1.413c-2.525,0-6.585-1.129-10.771-2.994
				c-2.417-1.077-3.252-1.325-3.542-1.05c-0.74,0.7,0.49,2.363,2.393,3.237c1.688,0.775,6.409,1.728,8.562,1.728
				c1.249,0,1.279,0.056,0.568,1.084l-0.523,0.756l1.413,0.036c0.777,0.02,1.85,0.142,2.384,0.27
				C472.626,755.117,472.639,755.117,472.836,754.816L472.836,754.816z" />
		<path id="_x31_" fill="#FFB700" d="M464.884,816.389l1.09-0.629l0.466,0.63c0.621,0.84,2.34,0.83,3.48-0.02l0.872-0.65l0.73,0.65
				c0.96,0.854,2.753,0.855,3.898,0.003c0.802-0.597,0.913-0.609,1.443-0.155c0.316,0.271,1.243,0.579,2.059,0.685
				c1.471,0.191,1.493,0.18,2.354-1.111c0.721-1.081,0.833-1.519,0.661-2.567c-0.114-0.695-0.237-1.814-0.273-2.486
				c-0.065-1.217-0.058-1.225,1.715-1.842c0.979-0.341,2.113-0.798,2.519-1.016c0.708-0.38,2.661-2.675,2.661-3.127
				c0-0.12-0.763-0.303-1.695-0.408c-3.708-0.416-4.336-2.407-1.926-6.106c3.931-6.032,6.304-11.906,6.32-15.648
				c0.007-1.673,0.102-2.234,0.317-1.871c0.878,1.487-0.695,7.719-3.079,12.195l-0.96,1.802l0.916-0.211
				c0.504-0.116,3.465-1.365,6.581-2.777c8.529-3.863,11.458-4.62,16.978-4.387c4.624,0.195,6.594,1.098,9.858,4.523
				c1.729,1.814,3.396,3.112,6.444,5.02c6.494,4.065,6.764,4.417,7.073,9.197c0.313,4.843,0.157,5.106-3.506,5.916
				c-3.131,0.692-5.094,2.151-5.62,4.179c-0.281,1.083,0.31,1.114,1.889,0.1l1.157-0.743l0.514,0.743
				c0.676,0.978,2.114,0.981,3.307,0.009l0.902-0.735l0.922,0.735c1.432,1.141,3.337,0.865,3.874-0.563
				c0.103-0.274,0.379-0.187,0.938,0.299c1.046,0.909,3.729,1.299,4.018,0.584c0.111-0.273-0.099-0.947-0.467-1.497
				c-1.561-2.34-2.049-3.456-2.069-4.729c-0.028-1.771,0.5-2.626,2.515-4.067c2.448-1.75,3.204-4.008,1.343-4.008
				c-1.149,0-2.308-1.016-3.047-2.671c-1.502-3.365-1.208-7.138,1.047-13.414c2.29-6.375,2.544-7.551,2.553-11.814
				c0.007-3.448-0.08-4.043-0.864-5.934c-0.479-1.156-1.453-2.876-2.162-3.823l-1.29-1.723l1.657-1.373
				c5.059-4.191,4.024-11.05-2.066-13.692c-1.863-0.808-2.328-0.88-5.593-0.858c-1.958,0.013-4.945,0.271-6.636,0.573
				c-1.725,0.308-4.644,0.555-6.646,0.563c-3.181,0.013-3.721-0.066-4.947-0.718c-1.278-0.68-1.498-1.003-1.748-2.576
				c-0.052-0.323-0.278-0.646-0.502-0.717c-0.435-0.137-2.443,1.605-2.74,2.377c-0.146,0.381-0.266,0.354-0.695-0.153
				c-0.285-0.337-0.683-1.112-0.885-1.722c-0.507-1.534,0.115-2.684,1.918-3.545l1.399-0.668l-0.825-0.512
				c-1.702-1.056-4.596-0.333-5.643,1.409c-0.296,0.493-0.619,0.897-0.718,0.898c-0.099,0.001-0.661-0.469-1.25-1.045
				c-2.198-2.147-1.442-5.324,1.498-6.294c1.567-0.517,2.955-0.123,3.243,0.923c0.441,1.596,1.81-0.502,1.565-2.396
				c-0.163-1.259-0.139-1.303,0.732-1.303c1.212,0,3.791,1.59,4.589,2.83c0.927,1.439,0.859,3.706-0.161,5.395l-0.801,1.326
				l1.047-0.21c1.536-0.308,3.028-1.261,3.783-2.418c0.798-1.223,0.884-3.604,0.176-4.889c-0.686-1.245-0.607-1.443,0.407-1.022
				c1.724,0.716,2.646,1.505,3.337,2.858c0.623,1.218,0.657,1.521,0.321,2.789c-0.208,0.782-0.671,1.812-1.029,2.287
				c-0.557,0.741-0.576,0.865-0.132,0.865c0.826,0,2.552-0.782,3.164-1.434c0.31-0.33,0.761-1.141,1.003-1.803l0.44-1.204
				l0.506,0.918c0.715,1.298,2.106,2.466,3.801,3.192c1.823,0.781,2.583,0.826,1.629,0.094c-0.643-0.493-1.828-3.969-1.469-4.31
				c0.211-0.2,2.687,1.705,5.513,4.242c2.674,2.4,4.354,3.187,6.809,3.187c3.137,0,4.963-2.731,3.554-5.313
				c-0.822-1.505-2.653-1.715-3.724-0.425c-0.492,0.593-0.628,1.064-0.483,1.686c0.177,0.762,0.108,0.863-0.586,0.863
				c-0.912,0-2.709-1.167-5.902-3.83c-4.868-4.062-10.782-7.505-15.053-8.762c-2.741-0.807-8.596-1.122-11.382-0.612
				c-3.015,0.552-6.582,2.278-8.525,4.125c-3.443,3.273-3.498,7.63-0.145,11.596l0.96,1.136l-0.65,1.01
				c-0.946,1.469-0.865,3.446,0.201,4.903c0.469,0.641,0.943,1.166,1.052,1.166c0.109,0,0.229-0.413,0.266-0.917
				c0.094-1.274,0.641-2.128,1.58-2.466c0.845-0.304,1.392-0.16,5.263,1.385c4.072,1.625,10.769,1.737,17.89,0.298
				c3.491-0.705,7.608-0.664,9.419,0.095c3.32,1.391,4.089,5.009,1.649,7.756c-1.056,1.189-2.075,1.673-5.496,2.612
				c-2.603,0.714-3.219,0.762-9.136,0.703c-5.055-0.05-6.871,0.047-8.934,0.478c-2.24,0.468-3.618,0.515-10.198,0.349l-7.608-0.192
				l0.844,0.698c0.464,0.384,1.12,0.857,1.457,1.051c0.574,0.329,0.555,0.374-0.298,0.69c-0.501,0.186-1.614,0.338-2.472,0.338
				h-1.561l-0.21,1.326c-0.115,0.729-0.107,1.581,0.019,1.893c0.186,0.459,0.117,0.525-0.367,0.349
				c-0.328-0.119-1.242-0.354-2.031-0.521s-1.851-0.509-2.361-0.758c-0.856-0.419-0.951-0.408-1.267,0.15
				c-0.282,0.499-2.926,2.466-3.314,2.466c-0.063,0-0.143-0.38-0.179-0.843s-0.418-1.671-0.848-2.683s-0.879-2.115-0.998-2.453
				c-0.179-0.509-0.26-0.535-0.476-0.153c-0.143,0.253-0.353,0.943-0.465,1.533c-0.112,0.59-0.511,1.549-0.885,2.131l-0.681,1.057
				l-0.434-0.904c-0.466-0.971-1.24-1.977-1.521-1.977c-0.095,0-0.256,0.311-0.358,0.69c-0.214,0.792-2.049,2.989-2.498,2.989
				c-0.165,0-0.3-0.621-0.3-1.38s-0.146-1.38-0.324-1.38s-0.324,0.196-0.324,0.436c0,0.583-1.568,2.323-2.094,2.323
				c-0.229,0-0.598,0.207-0.82,0.46c-0.578,0.659-1.051,0.567-0.808-0.158c0.114-0.34,0.04-1.133-0.165-1.763
				c-0.204-0.63-0.422-1.3-0.483-1.489c-0.077-0.239-0.639-0.175-1.828,0.206c-1.921,0.616-2.565,0.507-1.577-0.267
				c0.361-0.283,0.911-1.263,1.221-2.178s0.768-1.726,1.018-1.804c0.349-0.108,0.33,0.026-0.081,0.582
				c-0.294,0.397-0.535,0.933-0.536,1.191c0,0.258-0.222,0.868-0.491,1.357c-0.269,0.489-0.438,0.937-0.376,0.996
				c0.062,0.059,0.793-0.219,1.625-0.617l1.511-0.725l0.006,0.648c0.004,0.356,0.186,1.297,0.405,2.09l0.398,1.442l1.029-0.473
				c1.051-0.483,2.047-2.206,2.047-3.541c0-0.66,0.378-0.559,0.533,0.143c0.045,0.206,0.283,0.979,0.527,1.717l0.445,1.343
				l0.704-0.848c0.387-0.467,0.873-1.381,1.079-2.033c0.358-1.131,0.92-1.618,0.92-0.796c0,0.592,1.616,2.715,1.927,2.533
				c0.151-0.088,0.451-0.885,0.667-1.771c0.449-1.842,1.174-3.095,1.634-2.825c0.173,0.101,0.241,0.298,0.15,0.437
				c-0.091,0.139,0.281,1.337,0.827,2.662c0.545,1.325,1.093,2.658,1.217,2.964c0.199,0.491,0.379,0.42,1.549-0.613
				c0.728-0.643,1.388-1.362,1.468-1.599c0.12-0.358,0.282-0.345,0.963,0.078c0.952,0.591,4.151,1.542,4.398,1.308
				c0.093-0.088,0.188-0.928,0.211-1.867l0.042-1.708l0.92,0.191c0.506,0.105,1.57,0.098,2.365-0.014l1.445-0.205l-1.287-0.883
				c-0.708-0.486-1.424-1.114-1.591-1.397c-0.178-0.301-0.808-0.557-1.522-0.617c-1.929-0.164-5.347-2.081-5.347-2.999
				c0-0.172,0.474,0.121,1.052,0.651c1.284,1.177,3.067,1.915,4.625,1.915h1.166l-0.721-0.959c-0.414-0.551-0.786-1.596-0.873-2.455
				c-0.139-1.37-0.283-1.588-1.714-2.583c-0.859-0.598-1.924-1.493-2.365-1.99l-0.803-0.904l-0.41,1.073
				c-0.225,0.59-0.501,1.073-0.612,1.073s-0.544-0.345-0.963-0.767c-0.418-0.421-0.844-0.765-0.947-0.763
				c-0.103,0.002-0.473,0.57-0.823,1.262l-0.637,1.258l-0.492-0.725c-0.271-0.399-0.91-1.105-1.421-1.568
				c-0.51-0.464-0.779-0.843-0.597-0.843s0.813,0.483,1.401,1.073l1.069,1.073l0.435-0.786c0.258-0.467,0.355-1.184,0.238-1.763
				c-0.17-0.845-0.146-0.894,0.177-0.364c0.206,0.337,0.832,0.984,1.39,1.437l1.015,0.824l0.701-1.284
				c0.698-1.277,0.702-1.28,1.02-0.517c0.424,1.02,3.495,3.537,6.109,5.008c0.403,0.227,0.233-0.553-0.511-2.345
				c-0.197-0.475-0.358-1.331-0.358-1.902c0-0.847-0.244-1.225-1.328-2.05c-1.565-1.191-2.071-2.038-2.366-3.958
				c-0.119-0.778-0.393-1.644-0.609-1.924c-0.319-0.415-0.372-0.183-0.287,1.262c0.058,0.974-0.069,2.184-0.281,2.69l-0.386,0.92
				l-0.298-0.767c-0.164-0.421-0.89-1.155-1.614-1.629c-0.723-0.474-1.231-0.942-1.128-1.04s0.847,0.335,1.653,0.961
				c1.229,0.953,1.5,1.057,1.67,0.637c0.2-0.493,0-2.64-0.387-4.141c-0.193-0.749-0.176-0.745,0.748,0.179
				c0.682,0.681,1.059,1.494,1.351,2.913c0.371,1.802,0.558,2.102,2.224,3.564c1,0.878,1.871,1.548,1.935,1.488
				c0.064-0.06,0.19-2.333,0.281-5.05c0.174-5.21-0.023-6.45-1.277-8.06l-0.645-0.827l1.013-1.093
				c1.322-1.426,1.929-2.569,2.193-4.129l0.214-1.269l-1.144,1.083c-0.937,0.887-1.384,1.083-2.469,1.083
				c-1.074,0-1.494-0.18-2.218-0.951c-0.868-0.925-2.407-1.816-3.887-2.249c-0.547-0.16-0.729-0.09-0.729,0.28
				c0,0.271-0.302,1.053-0.671,1.739l-0.671,1.246l-1.406-1.39c-0.862-0.852-1.886-1.516-2.647-1.716
				c-1.945-0.511-2.051-0.461-2.051,0.989c0,2.198-0.938,2.608-2.628,1.147c-1.288-1.114-2.356-1.356-4.798-1.088l-1.886,0.207
				l0.339,0.851c0.283,0.711,0.22,1.011-0.388,1.818c-0.985,1.31-2.266,1.877-4.237,1.877c-0.908,0-2.044,0.188-2.525,0.417
				c-0.481,0.23-1.675,0.494-2.655,0.588c-0.979,0.094-2.023,0.261-2.32,0.372c-0.464,0.173-0.515,0.031-0.365-1.025
				c0.229-1.615-0.899-2.805-2.657-2.805c-2.281,0-3.332,2.04-2.439,4.73c0.172,0.518,0.397,1.334,0.5,1.815
				c0.107,0.498,1.134,1.821,2.392,3.079c1.213,1.214,2.359,2.476,2.547,2.806c0.188,0.33,0.81,0.859,1.382,1.176l1.04,0.576
				l-0.137-1.113c-0.151-1.223,0.116-1.415,0.767-0.552c0.233,0.308,0.824,0.807,1.313,1.108c0.771,0.474,0.89,0.484,0.89,0.072
				c0-0.261,0.157-0.864,0.349-1.338l0.349-0.863l0.606,1.174c0.333,0.646,1.418,2.114,2.41,3.262
				c1.925,2.228,3.097,4.718,2.492,5.291c-0.245,0.232-0.909,0.215-2.284-0.062c-1.066-0.214-2.385-0.328-2.93-0.252
				c-1.114,0.155-1.202,0.011-0.517-0.847c0.723-0.906,0.608-1.055-0.813-1.055c-1.644,0-5.725-0.788-7.292-1.408
				c-1.523-0.603-1.875-0.453-2.323,0.992c-0.202,0.65-0.571,1.828-0.821,2.618l-0.454,1.436l1.648-0.159
				c0.906-0.087,2.072-0.286,2.591-0.441s0.99-0.238,1.047-0.183c0.057,0.054-0.174,0.615-0.514,1.247l-0.618,1.148l1.028-0.209
				c0.565-0.115,1.415-0.397,1.889-0.626c0.825-0.399,0.891-0.37,1.542,0.674c0.8,1.284,1.44,1.232,1.582-0.13
				c0.147-1.408,0.61-1.2,1.481,0.666c0.838,1.794,1.709,2.428,1.877,1.364c0.056-0.353,0.507-0.928,1.003-1.278
				c1.003-0.707,1.76-0.495,2.193,0.615c0.449,1.149-0.552,2.333-3.463,4.098c-5.832,3.535-9.222,8.37-10.189,14.532
				c-0.873,5.558,1.854,11.302,7.323,15.427c2.617,1.974,6.775,4.058,6.511,3.263c-1.122-3.376-1.085-9.818,0.063-10.905
				c0.172-0.163,0.113,0.509-0.132,1.494c-0.911,3.668-0.515,6.591,1.82,13.441c2.113,6.196,1.82,8.844-1.17,10.594
				c-0.96,0.562-1.579,0.655-4.161,0.624c-2.802-0.034-3.107,0.022-4.006,0.739c-0.872,0.695-2.003,2.977-2.003,4.041
				C462.985,817.192,463.625,817.116,464.884,816.389L464.884,816.389z M487.589,762.658c0-0.45-1.321-1.669-2.659-2.454
				c-1.051-0.617-1.225-0.635-1.227-0.133c-0.004,0.764-0.683,2.683-0.949,2.683c-0.151,0-0.373-0.375-0.494-0.833
				c-0.122-0.458-0.631-1.361-1.132-2.007l-0.912-1.174l-0.71,1.088c-0.662,1.014-1.808,2.007-2.317,2.007
				c-0.121,0-0.145-0.534-0.053-1.187c0.1-0.709,0.023-1.272-0.193-1.398c-0.198-0.116-0.361-0.076-0.361,0.09
				c0,0.382-1.592,2.188-1.928,2.188c-0.139,0-0.333-0.517-0.432-1.15c-0.099-0.632-0.266-1.633-0.373-2.223
				c-0.106-0.59,0.12-0.19,0.504,0.889l0.697,1.962l0.764-1.196c0.421-0.658,0.765-1.376,0.766-1.597
				c0-0.221,0.143-0.318,0.316-0.217c0.173,0.101,0.413,0.892,0.535,1.757l0.22,1.573l0.841-0.922
				c0.463-0.507,1.005-1.186,1.205-1.509c0.357-0.576,0.377-0.575,1.087,0.026c0.398,0.337,1.009,1.144,1.359,1.793
				s0.682,1.132,0.74,1.073s0.185-0.727,0.285-1.486s0.188-1.408,0.197-1.442c0.049-0.188,2.534,1.427,3.453,2.244
				c0.591,0.526,1.152,0.882,1.247,0.792c0.095-0.09,0.173-0.865,0.173-1.723c0-1.329-0.141-1.686-0.954-2.412
				c-0.935-0.836-0.961-0.84-1.306-0.229c-0.448,0.793-0.977,0.805-0.977,0.021c0-0.572-1.766-2.77-2.226-2.77
				c-0.119,0-0.491,0.483-0.827,1.073c-0.336,0.59-0.697,1.073-0.802,1.072c-0.453-0.003-2.944-2.779-2.942-3.28
				c0-0.399,0.168-0.297,0.604,0.369c0.332,0.506,0.994,1.261,1.472,1.678c0.968,0.845,1.32,0.639,1.694-0.988
				c0.106-0.464,0.292-0.843,0.411-0.843c0.414,0,2.582,2.302,2.886,3.066l0.306,0.767l0.232-0.843
				c0.283-1.031,0.596-1.069,1.049-0.128c0.189,0.393,1.123,1.21,2.075,1.816l1.731,1.101l0.347-1.108
				c0.191-0.609,0.444-0.959,0.563-0.778c0.177,0.27-0.274,2.106-0.613,2.5c-0.051,0.059-0.612-0.268-1.247-0.726l-1.154-0.834
				l-0.005,1.493c-0.003,0.821-0.092,1.803-0.199,2.183C488.146,763.112,487.588,763.321,487.589,762.658L487.589,762.658z
				 M478.955,750.757c-2.058-1.718-2.37-2.111-2.325-2.926l0.048-0.867l0.134,0.837c0.078,0.489,0.626,1.221,1.317,1.76l1.183,0.923
				l0.727-0.841c0.4-0.462,0.732-1.013,0.739-1.224c0.017-0.55,0.115-0.503,1.509,0.705c1.238,1.074,1.257,1.079,1.441,0.383
				c0.103-0.388,0.066-1.118-0.081-1.623c-0.405-1.387-0.325-1.597,0.288-0.76c0.305,0.417,0.796,1.006,1.091,1.31
				c0.513,0.528,0.544,0.522,0.735-0.153c0.11-0.388,0.201-1.097,0.204-1.577l0.004-0.872l1.116,1.265
				c1.042,1.182,1.139,1.226,1.457,0.662c0.188-0.332,0.343-1.129,0.346-1.773c0.003-0.831,0.091-1.041,0.302-0.724
				c0.353,0.529,0.108,1.968-0.544,3.194l-0.468,0.88l-0.614-0.957c-0.786-1.223-1.047-1.204-1.551,0.116
				c-0.476,1.248-0.786,1.343-1.25,0.383c-0.301-0.621-0.358-0.545-0.571,0.759l-0.237,1.449l-1.42-1.102l-1.42-1.102l-0.638,0.726
				c-0.351,0.399-0.643,0.898-0.649,1.109C479.817,751.177,479.476,751.191,478.955,750.757L478.955,750.757z M497.261,744.358
				c-0.749-0.675-1.265-1.319-1.147-1.431c0.118-0.112,0.252-0.144,0.296-0.071c0.045,0.073,0.657,0.717,1.361,1.431
				C499.391,745.93,499.058,745.977,497.261,744.358z M472.877,741.837c-0.681-0.921-0.634-1.532,0.195-2.53
				c0.599-0.722,0.873-0.82,1.92-0.687c0.671,0.085,2.116,0.678,3.21,1.318c1.264,0.739,2.571,1.234,3.584,1.357
				c0.877,0.106,1.594,0.147,1.594,0.089c0-0.058-0.364-0.651-0.809-1.319c-1.057-1.586-1.021-1.756,0.171-0.806
				c1.224,0.975,2.688,1.26,5.959,1.161l1.598-0.049l-0.927-0.917c-1.297-1.282-0.897-1.397,0.534-0.154
				c1.343,1.166,1.259,1.248-1.568,1.53c-1.201,0.12-2.493,0.033-3.567-0.24c-1.606-0.409-1.669-0.402-1.365,0.136
				c0.176,0.31,0.459,0.564,0.631,0.564c0.172,0,0.312,0.157,0.312,0.349c0,0.591-3.47,0.071-5.128-0.768
				c-3.788-1.918-4.264-2.084-5.166-1.8c-0.502,0.158-1.004,0.621-1.177,1.084c-0.577,1.547,1.616,2.749,2.521,1.382
				c0.262-0.396,0.201-0.667-0.26-1.15c-0.631-0.661-0.572-0.755,0.28-0.445c0.605,0.22,0.686,1.672,0.124,2.205
				C474.902,742.761,473.432,742.588,472.877,741.837z M487.799,738.017c-0.474-0.449-0.102-0.559,2.021-0.598
				c2.627-0.049,4.223-0.487,6.105-1.675c1.508-0.952,1.917-0.765,0.486,0.222c-1.306,0.901-3.343,1.593-5.31,1.805
				c-0.952,0.103-2.038,0.245-2.412,0.316C488.315,738.157,487.914,738.126,487.799,738.017z M510.364,816.265l1.175-0.755
				l0.797,0.755c1.045,0.99,2.269,0.968,3.274-0.059c0.438-0.448,0.832-0.758,0.875-0.69s0.238,0.401,0.435,0.738
				c0.248,0.427,0.759,0.642,1.68,0.707c1.111,0.078,1.409-0.029,1.85-0.667l0.526-0.76l1.157,0.743
				c3.167,2.036,4.855-0.1,3.439-4.353c-0.72-2.162-0.324-3.378,1.996-6.13c0.978-1.161,1.779-2.399,1.78-2.753
				c0-0.563-0.181-0.639-1.483-0.613c-1.246,0.025-1.61-0.109-2.266-0.831c-1.066-1.174-1.003-2.519,0.189-4.011l0.952-1.192
				l-1.69-1.147c-0.929-0.631-2.605-2.123-3.725-3.316c-2.513-2.68-4.985-3.95-8.244-4.239l-2.185-0.193l0.003,1.654
				c0.004,2.129,1.003,4.177,3.731,7.647c3.101,3.945,3.318,4.555,3.443,9.712l0.106,4.361l-0.897,0.851
				c-0.811,0.77-1.177,0.868-3.793,1.019c-2.491,0.144-3.014,0.272-3.745,0.92c-0.971,0.86-1.261,1.328-1.561,2.516
				c-0.175,0.692-0.104,0.843,0.396,0.843C508.914,817.021,509.717,816.68,510.364,816.265L510.364,816.265z M443.705,804.995
				c0.277-0.375,0.504-0.98,0.504-1.345c0-0.551,0.247-0.698,1.458-0.871l1.458-0.207l-0.972-0.775
				c-1.155-0.921-1.262-1.64-0.244-1.641c1.014,0,2.731-1.053,2.992-1.832c0.121-0.362,0.045-0.846-0.173-1.094
				c-0.569-0.649-1.637-0.551-1.836,0.168c-0.213,0.773-0.571,0.775-1.381,0.008c-1.218-1.154-1.246-3.542-0.056-4.933
				c0.56-0.655,0.555-0.698-0.159-1.375c-0.769-0.728-1.317-2.169-0.956-2.511c0.115-0.109,0.722-0.022,1.349,0.193
				c0.891,0.305,1.243,0.31,1.611,0.021c1.112-0.875-0.093-1.999-1.877-1.751c-0.718,0.1-1.015,0-1.118-0.372
				c-0.078-0.282-0.706-0.651-1.414-0.83c-1.264-0.32-1.273-0.316-1.273,0.555c0,0.955-0.545,1.135-1.58,0.522
				c-0.841-0.498-1.657-0.111-1.657,0.785c0,0.836,0.841,1.248,2.347,1.151c1.156-0.074,1.198,0.785,0.101,2.02l-0.789,0.888
				l0.625,0.898c0.926,1.33,0.848,3.54-0.164,4.637l-0.793,0.86l-0.52-0.69c-0.723-0.958-1.712-0.894-1.983,0.129
				c-0.177,0.67-0.031,0.976,0.808,1.686c0.564,0.477,1.387,0.868,1.829,0.868c1.095,0,1.052,0.861-0.086,1.73l-0.89,0.68
				l1.376,0.213c0.757,0.117,1.376,0.338,1.376,0.491c0,0.585,0.954,2.404,1.26,2.404
				C443.056,805.676,443.428,805.37,443.705,804.995L443.705,804.995z M461.62,797.231c1.25-0.493,3.955-2.783,3.955-3.349
				c0-0.178-0.747-0.999-1.659-1.825c-1.921-1.738-4.01-4.664-4.551-6.375c-0.282-0.892-1.646-2.419-5.488-6.145l-5.112-4.958
				l-1.473,0.373c-0.81,0.205-1.799,0.378-2.197,0.384c-0.686,0.01-0.674,0.05,0.239,0.756l0.962,0.745l1.349-0.749
				c1.308-0.726,1.354-0.73,1.515-0.146c0.094,0.342-0.109,0.935-0.471,1.37c-0.351,0.422-0.55,0.901-0.444,1.064
				c0.106,0.163-0.23,0.504-0.748,0.758c-0.96,0.47-1.626,2.018-0.869,2.018c0.682,0,2.184-1.854,2.011-2.481
				c-0.089-0.321-0.046-0.652,0.095-0.734c0.585-0.343,0.549,1.113-0.046,1.829c-0.351,0.422-0.55,0.901-0.444,1.064
				c0.106,0.163-0.23,0.504-0.748,0.758c-0.954,0.467-1.627,2.018-0.876,2.018c0.736,0,2.214-1.772,2.031-2.435
				c-0.096-0.347-0.059-0.698,0.082-0.781c0.394-0.231,0.607,0.918,0.274,1.482c-0.178,0.302-0.177,0.713,0.004,1.04
				c0.327,0.592-0.005,1.728-0.608,2.081c-0.259,0.151-0.083,0.448,0.544,0.922c0.908,0.686,0.925,0.758,0.925,3.782
				c0,2.528,0.102,3.18,0.566,3.62c0.521,0.494,0.567,0.496,0.567,0.022c0-0.517,0.908-1.15,1.651-1.15
				c0.219,0,1.588,1.16,3.042,2.578c1.463,1.427,2.993,2.64,3.427,2.718c0.431,0.077,0.897,0.158,1.036,0.181
				C460.302,797.687,460.958,797.492,461.62,797.231L461.62,797.231z M445.989,784.999c0-0.815-1.681-1.685-3.692-1.91
				c-1.623-0.182-1.65-0.172-1.65,0.639c0,0.671,0.255,0.935,1.376,1.423C443.824,785.935,445.989,785.852,445.989,784.999z
				 M447.833,784.924c0.82-0.744,1.208-1.629,0.715-1.629c-0.567,0-2.073,1.351-2.073,1.86
				C446.475,785.95,446.755,785.903,447.833,784.924z M446.084,782.515c0.07-0.46-0.215-0.767-1.067-1.152
				c-1.839-0.83-4.038-1.215-4.567-0.799c-0.975,0.766-0.325,1.796,1.251,1.981c0.635,0.075,1.495,0.268,1.912,0.43
				C444.824,783.446,445.976,783.231,446.084,782.515z M446.084,780.052c0.099-0.656-0.32-0.891-3.744-2.096
				c-2.556-0.9-3.688-0.476-2.871,1.076c0.285,0.541,0.762,0.788,1.833,0.948c0.797,0.119,1.886,0.353,2.42,0.518
				C445.149,780.943,445.973,780.787,446.084,780.052z M447.801,777.744c0.517-0.524,0.939-1.142,0.939-1.374
				c0-0.751-2.04,0.578-2.3,1.499C446.127,778.975,446.633,778.928,447.801,777.744L447.801,777.744z M446.085,777.589
				c0.113-0.747-1.13-1.422-3.573-1.94c-1.793-0.381-2.583-0.165-2.449,0.668c0.073,0.455,0.67,0.787,2.364,1.316
				C445.138,778.479,445.953,778.469,446.085,777.589z M448.475,774.111c3.131-1.394,3.402-4.909,0.449-5.832
				c-1.226-0.383-2.009-0.177-2.478,0.654c-0.359,0.636-0.119,1.792,0.373,1.792c0.166,0,0.302,0.214,0.302,0.476
				c0,1.22-4.781,1.773-6.741,0.78c-0.689-0.349-0.989-1.255-0.415-1.255c0.428,0,0.725-0.923,0.506-1.576
				c-0.298-0.89-1.195-1.198-2.496-0.858c-2.935,0.768-2.853,4.216,0.136,5.68C440.56,775.17,445.932,775.243,448.475,774.111z
				 M446.527,771.41c0.181-0.172,0.103-0.436-0.201-0.675c-0.666-0.523-0.63-1.301,0.1-2.192c0.548-0.669,0.617-1.67,0.805-11.768
				c0.325-17.403,1.619-30.493,3.325-33.633c0.679-1.25,0.584-1.255-1.171-0.061c-2.26,1.538-3.981,3.541-5.506,6.408
				c-2.879,5.413-3.88,12.695-3.88,28.239c0,8.826,0.06,9.981,0.563,10.811c0.478,0.788,0.503,1.079,0.167,1.921
				c-0.218,0.546-0.316,1.067-0.219,1.159C441.153,772.227,445.836,772.065,446.527,771.41L446.527,771.41z M472.836,754.816
				c0.098-0.15-0.119-0.909-0.481-1.686c-0.566-1.212-0.794-1.413-1.6-1.413c-2.525,0-6.585-1.129-10.771-2.994
				c-2.417-1.077-3.252-1.325-3.542-1.05c-0.74,0.7,0.49,2.363,2.393,3.237c1.688,0.775,6.409,1.728,8.562,1.728
				c1.249,0,1.279,0.056,0.568,1.084l-0.523,0.756l1.413,0.036c0.777,0.02,1.85,0.142,2.384,0.27
				C472.626,755.117,472.639,755.117,472.836,754.816L472.836,754.816z" />
	</g>
</svg>