<?xml version="1.0" encoding="UTF-8"?>
<svg height="600" viewBox="0 0 450 300" width="900" xmlns="http://www.w3.org/2000/svg">
 <path d="m0 0h450v300h-450z" fill="#009543"/><path d="m0 0h450v210h-450z" fill="#fff"/>
 <path d="m0 0h450v90h-450z" fill="#00209f"/>
 <path d="m450.45312 190.11719-.95312.01953c-2.07178.04464-3.90029 1.14406-5.24609 2.16406-1.34578 1.02-2.24219 2.03906-2.24219 2.03906l-.20703.23633c-7.05262 1.24001-13.48679 4.28584-18.61328 9.26367-6.78698 6.5902-11.1119 16.29881-12.47266 28.66407-1.39514 12.6779 2.07912 26.81328 5.71094 38.05078 3.63184 11.23752 7.60547 19.60937 7.60547 19.60937l.70507 1.48633-45.75195 61.60742-9.19922-3.17969-16.5664 35.33594.75.47266s39.34764 24.6383 96.39062 23.96484c62.54266-.74372 96.69922-25.1289 96.69922-25.1289l.69141-.49219-17.13282-34.90625-8.15234 3.54687-47.48242-62.80468.36914.14453s4.16829-8.56186 7.89453-20.02344 7.22659-25.86698 5.39453-38.76172c-1.7314-12.18624-5.56498-21.74769-12.375-28.24609-4.98069-4.75275-11.37384-7.55809-18.82422-8.67774v-.19726l-.28125-.28907s-.94211-.98047-2.33203-1.9414c-1.15954-.80164-2.6966-1.50754-4.36328-1.73828zm6.97071 14.47851c5.0317.94359 8.87331 2.8888 11.94336 5.81836 4.60348 4.3928 7.8304 11.54641 9.375 22.41797 1.41414 9.95324-1.50139 23.49221-5.00391 34.26563-2.14997 6.61311-4.04006 11.20223-5.36719 14.21875l-7.1914-9.51172-.08203-22.5586h11.86328l-15.60156-14.65234zm-15.58789.14844.21875 30.32227-14.10938 14.78125h11.67578l-.08203 21.875-7.88476 10.61718c-1.01981-2.21116-3.06386-6.67486-5.70899-14.85937-3.42354-10.59298-6.38292-23.94271-5.28906-33.88281 1.17364-10.66474 4.69746-17.91873 9.5-22.58204 3.23281-3.13907 7.12563-5.21892 11.67969-6.27148zm81.2832 156.93555 2.53711 3.68945-7.14648 10.60352-7.37696-9.45118zm-147.53906 3.46093 2.99609 9.22071-8.75976 1.84375s5.07207-10.14233 5.76367-11.06446zm9.2207.21876 12.9082 3.91992 2.99805 6.45508-11.29687 3.22656zm118.03125 4.15039 3.6875 3.91992-10.83398 8.52929-6.68555-8.29882zm25.12891 1.39062 4.3789 8.75977-8.75976 2.99609-.69141-4.14844zm-119.42188 1.37891 12.91016 2.76758 3.68945 5.53124-11.29687 4.38086zm70.08594 2.3164 3.45703 5.07227-12.91015 6.22265-5.53126-9.45117zm-45.88477 1.38477 20.97852.92187 1.84375 4.37891-16.36719 5.99414zm76.08008 2.05859 6.68555 8.99219-14.29297 3.6875-2.76758-4.83984zm-128.17969.24024 1.84376 7.37695-11.06446-4.37891zm21.9043 2.08203 5.99219 12.67969-14.98438-3.6875-1.61328-5.53321zm82.29492 3.21875 7.83789 9.2207-17.28906 2.76758-3.45898-5.5332zm-26.5039 1.8457 7.60742 11.29688-20.28516.6914-3.45898-5.99414zm-30.42774.00391 7.37696 11.52734-17.52149-2.53515-1.84375-4.8418z" transform="scale(.5)"/>
</svg>