<?xml version="1.0" encoding="UTF-8"?>
<svg xmlns="http://www.w3.org/2000/svg" xmlns:xlink="http://www.w3.org/1999/xlink" width="570" height="300">
<title>Flag of the Marshall Islands</title>

<rect width="570" height="300" fill="#003893" />
<polygon points="0,290.4 570,0 570,60 0,296" fill="#dd7500" />
<polygon points="0,295.2 570,58.8 570,117.6 0,300" fill="#fff" />
<polygon points="110,17 107,81 93,46 99,83 77,53 92,87 63,63 87,92 53,77 83,99 46,93 81,107 17,110 81,114 46,128 83,122 53,144 87,128 63,157 92,134 77,168 99,138 93,175 107,139 110,203 114,139 128,175 122,138 144,168 128,134 157,157 134,128 168,144 138,122 175,128 139,114 203,110 139,107 175,93 138,99 168,77 134,92 157,63 128,87 144,53 122,83 128,46 114,81" fill="#fff" />
</svg>