<svg xmlns="http://www.w3.org/2000/svg" width="1200" height="600" viewBox="0 0 240 120">
  <rect width="240" height="120" fill="#0038a8"/>
  <rect y="60" width="240" height="60" fill="#ce1126"/>
  <path d="M103.92307 60L0 120V0" fill="#fff"/>
  <path d="M6 10.3923l3.61208 3.121446 4.18214-2.302242-1.85248 4.399868 3.48192 3.266012-4.75698-.40218-2.0302 4.320745L7.549 18.147524l-4.73664-.595642 4.08488-2.47071z" fill="#fcd116"/>
  <path d="M87.3165 53.659618l.09726 4.772948 4.50928 1.56743-4.50928 1.567428-.09726 4.77295-2.88416-3.804228-4.56942 1.382416 2.72678-3.918566-2.72678-3.918566 4.56942 1.382416z" fill="#fcd116"/>
  <path d="M8.63648 97.204042l2.0302 4.320748 4.75698-.40218-3.48192 3.26601 1.85248 4.39987-4.18214-2.30224L6 109.60769l.89724-4.68887-4.08488-2.47071 4.73664-.59564z" fill="#fcd116"/>
  <path d="M37.33334 34.666664l-1.558 1.557998.77266 11.800586c-.26268.01692-.52274.0424-.78058.076L34.34876 37.33299l-1.27142 1.271414 1.91426 9.62508c-1.57464.311572-3.03812.93012-4.32568 1.792334l-5.4514-8.158902h-1.79868l6.612 8.61808c-.20746.159494-.4084.326318-.60482.498746l-7.7995-8.893586h-2.204v2.204002l8.89358 7.799506c-.17262.196664-.33912.398692-.49874.606412l-8.61808-6.613586v1.798668l8.16048 5.452996c-.86198 1.287334-1.4824 2.749842-1.7939 4.324094l-9.6251-1.914254-1.2714 1.271414 10.76824 1.41867c-.0336.25788-.05908.517944-.076.780586l-11.8006-.772668-1.558 1.558 1.558 1.558 11.8006-.772668c.017.262786.0424.52428.076.78216l-10.76824 1.417096 1.2714 1.271414 9.6251-1.914254c.31152 1.574546.92998 3.037864 1.79232 4.325666l-8.15892 5.451412v1.798666l8.6181-6.611998c.15948.207548.32632.408334.49874.604838l-8.89358 7.799494v2.204h2.204l7.7995-8.893572c.19672.172732.39864.338946.6064.498746l-6.61358 8.61808h1.79868l5.453-8.160494c1.287.862736 2.74966 1.483988 4.32408 1.795496l-1.91426 9.623506 1.27142 1.271412 1.41866-10.768254c.25774.0336.5179.05906.78058.076l-.77266 11.800586 1.558 1.558 1.558-1.558-.77266-11.800586c.26272-.01706.52274-.0424.78058-.076l1.41866 10.768254 1.27142-1.271412-1.91424-9.625096c1.57462-.311558 3.0381-.930104 4.32566-1.792332l5.4514 8.158918h1.79868l-6.612-8.618078c.20746-.159494.40842-.326318.60484-.498746l7.7995 8.893572h2.204v-2.204l-8.89358-7.799494c.17262-.196664.3391-.398692.49876-.606412l8.61808 6.613572v-1.798666l-8.16052-5.452998c.86198-1.28732 1.48244-2.749828 1.79392-4.32408l9.6251 1.914254 1.27142-1.271414-10.76828-1.41867c.0336-.257892.05906-.517944.076-.780586l11.8006.772668 1.558-1.558-1.558-1.558-11.8006.772668c-.0168-.262708-.04238-.522748-.07598-.780586l10.76826-1.41867-1.27142-1.271414-9.62508 1.914254c-.31158-1.574624-.93012-3.038118-1.79236-4.325666l8.15894-5.451426V46.08249l-8.61808 6.612c-.1595-.207454-.32632-.408402-.49876-.604826l8.89358-7.799506v-2.204002h-2.204l-7.7995 8.893586c-.19666-.172612-.39868-.339106-.60642-.498746l6.61358-8.61808h-1.79868l-5.45298 8.160494c-1.28734-.861972-2.74984-1.482416-4.32408-1.793922l1.91424-9.62508-1.27142-1.271412-1.41866 10.768254c-.25786-.0336-.51794-.05906-.78058-.076l.77266-11.800586z" fill="#fcd116"/>
</svg>
