<svg height="600" width="1200" xmlns="http://www.w3.org/2000/svg" xmlns:xlink="http://www.w3.org/1999/xlink"><clipPath id="a"><path d="m0 0v150h700v150h-100zm0 300v50h300v-350h300z"/></clipPath><path d="m0 0h1200v600h-1200z" fill="#012169"/><path d="m0 0 600 300m0-300-600 300" stroke="#fff" stroke-width="60"/><path clip-path="url(#a)" d="m0 0 600 300m0-300-600 300" stroke="#c8102e" stroke-width="40"/><path d="m0 150h700m-400-150v350" stroke="#fff" stroke-width="100"/><path d="m0 150h700m-400-150v350" stroke="#c8102e" stroke-width="60"/><path d="m0 300h600v-300h600v600h-1200z" fill="#0095c8"/><g fill="#fedd00"><path d="m645.3396 490.91279 29.4368 90.597-77.0665-55.992h95.2594l-77.0665 55.993z"/><path d="m817.46233 463.99977-29.43671 90.59703-29.43684-90.59703 77.06648 55.99207-95.25997.00074z"/><path d="m817.46233 342.01619-29.43671 90.59703-29.43684-90.59703 77.06648 55.99207-95.25997.00074z"/><path d="m943.46715 433.16817-29.43671 90.59703-29.43683-90.59703 77.06647 55.99207-95.25997.00073z"/><path d="m943.46715 167.75458-29.43671 90.59703-29.43683-90.59703 77.06647 55.99207-95.25997.00073z"/><path d="m996.44159 339.96479 29.43681 90.597-77.06651-55.992h95.25941l-77.06651 55.993z"/><path d="m1049.3647 131.56139-29.4367 90.59703-29.43681-90.59703 77.06651 55.99207-95.26001.00073z"/><path d="m1102.8361 271.47361 29.4368 90.597-77.0665-55.992h95.2594l-77.0665 55.993z"/><path d="m1102.8361 37.4052 29.4368 90.597-77.0665-55.992h95.2594l-77.0665 55.993z"/></g></svg>